<svg id="visual" viewBox="0 0 1920 300" width="1920" height="300" xmlns="http://www.w3.org/2000/svg" xmlns:xlink="http://www.w3.org/1999/xlink" version="1.1"><path d="M0 229L53.3 233.5C106.7 238 213.3 247 320 257.2C426.7 267.3 533.3 278.7 640 276.8C746.7 275 853.3 260 960 246.7C1066.7 233.3 1173.3 221.7 1280 221.8C1386.7 222 1493.3 234 1600 235.8C1706.7 237.7 1813.3 229.3 1866.7 225.2L1920 221L1920 301L1866.7 301C1813.3 301 1706.7 301 1600 301C1493.3 301 1386.7 301 1280 301C1173.3 301 1066.7 301 960 301C853.3 301 746.7 301 640 301C533.3 301 426.7 301 320 301C213.3 301 106.7 301 53.3 301L0 301Z" fill="#041023" stroke-linecap="round" stroke-linejoin="miter"></path></svg>